<svg xmlns="http://www.w3.org/2000/svg" version="1.1" xmlns:xlink="http://www.w3.org/1999/xlink" xmlns:svgjs="http://svgjs.dev/svgjs" width="1000" height="1000" viewBox="0 0 1000 1000"><rect width="1000" height="1000" fill="#ffffff"></rect><g transform="matrix(0.7,0,0,0.7,150,150)"><svg viewBox="0 0 280 280" data-background-color="#ffffff" preserveAspectRatio="xMidYMid meet" height="1000" width="1000" xmlns="http://www.w3.org/2000/svg" xmlns:xlink="http://www.w3.org/1999/xlink"><g id="tight-bounds" transform="matrix(1,0,0,1,0,0)"><svg viewBox="0 0 280 280" height="280" width="280"><g><svg viewBox="0 0 280 280" height="280" width="280"><g><svg viewBox="0 0 280 280" height="280" width="280"><g id="textblocktransform"><svg viewBox="0 0 280 280" height="280" width="280" id="textblock"><g><svg viewBox="0 0 280 280" height="280" width="280"><g transform="matrix(1,0,0,1,94.6273148738632,90.50252531694167)"><svg viewBox="0 0 90.7453702522736 98.99494936611666" height="98.99494936611666" width="90.7453702522736"><g><svg xmlns="http://www.w3.org/2000/svg" viewBox="2 0 44 48" x="0" y="0" height="98.99494936611666" width="90.7453702522736" class="icon-o-0" data-fill-palette-color="accent" id="o-0"><path d="M33.34 26.83L36.17 24l-2.83-2.83 1.42-1.41 2.83 2.83L39 24l-1.41 1.41-2.83 2.83Zm-20.1-7.07l-2.83 2.83L9 24l1.41 1.41 2.83 2.83 1.42-1.41L11.83 24l2.83-2.83ZM46 12V36L24 48 2 36V12L24 0Zm-2 1.19L24 2.28 4 13.19V34.81L24 45.72 44 34.81ZM20.89 32.45l8-16-1.78-0.9-8 16Z" fill="#000000" data-fill-palette-color="accent"></path></svg></g></svg></g><g><path d="M18.257 106.773l-13.745-4.071 2.339-7.897 1.326 0.393-1.886 6.37 5.405 1.601 1.637-5.526 1.316 0.389-1.637 5.526 5.697 1.688z" fill="#000000" data-fill-palette-color="primary"></path><path d="M22.071 95.324l-13.224-5.424c0.629-1.939 1.205-3.545 1.727-4.819v0l0.072-0.174c0.573-1.396 1.286-2.243 2.141-2.542v0c0.73-0.252 1.703-0.129 2.918 0.37v0c1.564 0.642 2.636 1.342 3.216 2.1v0c0.587 0.777 0.762 1.732 0.524 2.865v0c0.325-0.093 0.66-0.182 1.004-0.267v0l0.944-0.202 4.356-0.875-0.707 1.726-3.961 0.709c-1.068 0.211-1.792 0.394-2.172 0.547v0l-0.04 0.097c-0.173 0.405-0.345 0.795-0.514 1.171v0l-0.566 1.24 4.887 2.004zM10.557 88.88l6.059 2.485c0.275-0.597 0.679-1.545 1.212-2.844v0c0.44-1.073 0.438-1.923-0.007-2.551v0c-0.388-0.544-1.239-1.086-2.55-1.624v0c-1.105-0.453-1.927-0.503-2.465-0.15v0c-0.323 0.2-0.566 0.47-0.729 0.811-0.166 0.332-0.303 0.627-0.408 0.886-0.103 0.252-0.201 0.499-0.293 0.74-0.101 0.246-0.196 0.486-0.284 0.722-0.092 0.242-0.18 0.485-0.266 0.729v0z" fill="#000000" data-fill-palette-color="primary"></path><path d="M26.821 84.439l-10.268-11.05 1.056-1.907 14.972 2.552-0.822 1.485-4.366-0.788-2.797 5.051 3.021 3.218zM23.631 78.757l2.37-4.282-7.811-1.425 0.798 0.765z" fill="#000000" data-fill-palette-color="primary"></path><path d="M34.578 71.092l-11.781-8.168 0.723-1.042 12.315 0.518 1.945 0.303-1.738-0.95-8.396-5.821 0.83-1.197 11.78 8.167-0.764 1.103-12.274-0.541-1.79-0.233 1.687 0.914 8.293 5.75z" fill="#000000" data-fill-palette-color="primary"></path><path d="M46.095 54.466l0.055-0.063c0.675-0.765 1.207-1.664 1.598-2.699v0l1.237 0.546c-0.136 0.513-0.389 1.054-0.76 1.622-0.366 0.562-0.719 1.037-1.061 1.425v0l-0.083 0.095c-1.469 1.666-2.935 2.362-4.398 2.087v0c-0.881-0.163-1.847-0.641-2.896-1.437v0c-0.499-0.384-1.032-0.826-1.598-1.325-0.561-0.494-1.083-0.979-1.569-1.453-0.48-0.48-0.891-0.954-1.232-1.423-0.341-0.469-0.598-0.938-0.771-1.407-0.178-0.474-0.251-0.962-0.218-1.463v0c0.059-1.028 0.602-2.124 1.627-3.287v0c0.661-0.749 1.239-1.31 1.736-1.683 0.506-0.373 0.857-0.613 1.054-0.72v0l0.838 1.299c-1.128 0.635-1.977 1.275-2.545 1.919-0.573 0.65-0.936 1.219-1.088 1.709-0.148 0.484-0.129 0.986 0.057 1.504v0c0.318 0.886 1.344 2.093 3.079 3.623v0l0.518 0.457c1.43 1.262 2.59 1.958 3.48 2.091v0c0.999 0.145 1.979-0.327 2.94-1.417z" fill="#000000" data-fill-palette-color="primary"></path><path d="M50.679 51.321l-6.213-13.746 1.609-1.471 13.379 7.189-1.253 1.145-3.887-2.138-4.26 3.897 1.838 4.013zM49.465 44.918l3.611-3.303-6.95-3.84 0.513 0.98z" fill="#000000" data-fill-palette-color="primary"></path><path d="M62.537 40.854l-8.923-11.22 1.238-0.985 8.923 11.22z" fill="#000000" data-fill-palette-color="primary"></path><path d="M66.678 36.662l-0.204-1.434c1.595-0.156 2.959-0.608 4.09-1.353v0c1.312-0.865 1.805-1.793 1.479-2.782v0c-0.115-0.326-0.289-0.667-0.523-1.023v0l-0.202-0.307c-0.242-0.367-0.463-0.645-0.661-0.831-0.202-0.193-0.431-0.305-0.687-0.338v0c-0.428-0.053-1.198 0.175-2.312 0.683v0c-0.996 0.456-1.707 0.736-2.131 0.84-0.429 0.099-0.802 0.148-1.12 0.148-0.322-0.006-0.634-0.067-0.938-0.185v0c-0.632-0.261-1.221-0.806-1.767-1.634v0l-0.052-0.078c-1.134-1.721-1.098-3.221 0.108-4.502v0c0.386-0.405 0.864-0.796 1.436-1.172v0l0.105-0.07c1.336-0.88 2.556-1.409 3.661-1.585v0l0.388 1.464c-1.319 0.233-2.413 0.637-3.282 1.21v0l-0.07 0.046c-0.957 0.631-1.494 1.244-1.611 1.84v0c-0.103 0.503 0.089 1.125 0.577 1.866v0l0.023 0.035c0.561 0.852 1.162 1.255 1.802 1.209v0c0.436-0.036 1.108-0.262 2.015-0.675 0.911-0.408 1.593-0.699 2.047-0.873 0.464-0.172 0.908-0.247 1.333-0.226v0c0.872 0.053 1.711 0.692 2.518 1.917v0l0.069 0.105c1.234 1.872 1.213 3.484-0.063 4.836v0c-0.384 0.42-0.783 0.767-1.197 1.04-0.414 0.273-0.797 0.504-1.148 0.695-0.358 0.194-0.734 0.371-1.131 0.531v0c-0.928 0.369-1.779 0.57-2.552 0.603z" fill="#000000" data-fill-palette-color="primary"></path><path d="M78.704 30.272l-6.756-12.644 7.163-3.827 0.652 1.22-5.758 3.077 2.331 4.362 4.648-2.484 0.652 1.22-4.649 2.484 2.475 4.63 5.979-3.195 0.647 1.211z" fill="#000000" data-fill-palette-color="primary"></path><path d="M95.115 22.666l-4.756-13.434c0 0 0.43-0.189 1.288-0.567v0c1.286-0.574 2.325-1.001 3.115-1.281 0.79-0.28 1.433-0.474 1.928-0.583 0.491-0.1 0.941-0.137 1.351-0.111 0.407 0.019 0.782 0.116 1.125 0.291 0.341 0.168 0.662 0.425 0.962 0.771v0c0.566 0.637 1.112 1.696 1.637 3.178v0l0.486 1.373c0.618 1.745 0.959 3.118 1.024 4.117v0c0.068 1.154-0.205 2.1-0.819 2.836v0c-0.633 0.765-1.724 1.422-3.271 1.969v0zM98.587 8.642c-0.33-0.261-0.726-0.406-1.188-0.435-0.462-0.029-1.108 0.103-1.938 0.397-0.83 0.294-1.888 0.728-3.174 1.302v0l3.882 10.964 2.805-0.993c1.1-0.389 1.85-0.855 2.251-1.397v0c0.397-0.533 0.534-1.256 0.411-2.169v0c-0.093-0.745-0.415-1.895-0.966-3.449v0l-0.489-1.383c-0.52-1.469-1.051-2.414-1.594-2.837z" fill="#000000" data-fill-palette-color="primary"></path><path d="M109.627 18.117l-3.225-13.967 7.913-1.827 0.311 1.347-6.361 1.469 1.113 4.819 5.136-1.186 0.311 1.348-5.136 1.186 1.181 5.115 6.606-1.525 0.309 1.338z" fill="#000000" data-fill-palette-color="primary"></path><path d="M119.991 15.026l0.447-1.377c1.502 0.561 2.924 0.756 4.269 0.584v0c1.559-0.199 2.41-0.815 2.553-1.848v0c0.041-0.343 0.034-0.726-0.02-1.149v0l-0.047-0.364c-0.056-0.437-0.132-0.782-0.228-1.037-0.097-0.262-0.253-0.464-0.468-0.606v0c-0.361-0.236-1.153-0.37-2.376-0.404v0c-1.095-0.029-1.857-0.09-2.284-0.183-0.428-0.1-0.785-0.22-1.071-0.36-0.286-0.146-0.54-0.339-0.761-0.578v0c-0.453-0.513-0.742-1.261-0.868-2.245v0l-0.012-0.094c-0.262-2.044 0.431-3.376 2.077-3.995v0c0.525-0.194 1.126-0.334 1.806-0.421v0l0.125-0.016c1.587-0.203 2.915-0.141 3.985 0.188v0l-0.296 1.485c-1.287-0.371-2.447-0.49-3.479-0.358v0l-0.083 0.011c-1.136 0.145-1.889 0.46-2.256 0.943v0c-0.314 0.406-0.415 1.05-0.303 1.93v0l0.006 0.042c0.129 1.012 0.491 1.638 1.085 1.878v0c0.408 0.159 1.11 0.252 2.106 0.28 0.997 0.034 1.738 0.073 2.223 0.117 0.492 0.05 0.924 0.178 1.296 0.384v0c0.759 0.431 1.232 1.374 1.418 2.829v0l0.016 0.125c0.285 2.224-0.444 3.663-2.184 4.315v0c-0.53 0.209-1.041 0.344-1.532 0.407-0.492 0.063-0.938 0.102-1.338 0.119-0.406 0.017-0.823 0.01-1.249-0.02v0c-0.996-0.077-1.848-0.271-2.557-0.582z" fill="#000000" data-fill-palette-color="primary"></path><path d="M139.564 14.433l0.275-14.249c0 0 0.469-0.026 1.406-0.077v0c1.406-0.085 2.528-0.119 3.367-0.103 0.838 0.016 1.508 0.061 2.009 0.133 0.495 0.079 0.929 0.203 1.303 0.371 0.374 0.161 0.691 0.384 0.952 0.668 0.26 0.278 0.47 0.631 0.629 1.061v0c0.306 0.795 0.444 1.979 0.413 3.55v0l-0.028 1.456c-0.036 1.851-0.199 3.256-0.49 4.215v0c-0.343 1.104-0.931 1.893-1.765 2.366v0c-0.862 0.493-2.114 0.724-3.755 0.692v0zM147.749 2.528c-0.217-0.361-0.536-0.636-0.959-0.826-0.423-0.19-1.074-0.293-1.954-0.31-0.88-0.017-2.023 0.017-3.429 0.101v0l-0.225 11.629 2.976 0.058c1.166 0.023 2.033-0.149 2.598-0.516v0c0.559-0.36 0.941-0.988 1.148-1.885v0c0.175-0.73 0.278-1.92 0.31-3.568v0l0.028-1.467c0.03-1.558-0.134-2.63-0.493-3.216z" fill="#000000" data-fill-palette-color="primary"></path><path d="M154.75 15.28l1.893-14.209 8.05 1.072-0.182 1.372-6.472-0.863-0.653 4.903 5.225 0.696-0.183 1.371-5.225-0.696-0.693 5.204 6.721 0.895-0.182 1.361z" fill="#000000" data-fill-palette-color="primary"></path><path d="M169.881 18.087l-1.362-15.106 1.679 0.412 0.907 11.466 0.011 1.977 0.977-1.734 6.033-9.762 1.658 0.407-8.112 12.78z" fill="#000000" data-fill-palette-color="primary"></path><path d="M179.902 20.878l4.738-13.529 7.665 2.684-0.458 1.305-6.161-2.158-1.635 4.669 4.975 1.742-0.457 1.305-4.975-1.742-1.735 4.955 6.399 2.241-0.454 1.295z" fill="#000000" data-fill-palette-color="primary"></path><path d="M191.234 25.255l5.96-13.037 1.449 0.662-5.39 11.789 5.165 2.361-0.57 1.249z" fill="#000000" data-fill-palette-color="primary"></path><path d="M205.161 32.781l-0.498-0.289c-1.927-1.12-2.844-2.461-2.752-4.024v0c0.048-0.917 0.38-1.981 0.995-3.191v0c0.289-0.567 0.622-1.174 0.998-1.821 0.376-0.646 0.755-1.25 1.137-1.811 0.373-0.559 0.751-1.042 1.134-1.45 0.385-0.398 0.783-0.721 1.193-0.967 0.412-0.237 0.852-0.381 1.318-0.433v0c0.967-0.092 2.09 0.234 3.371 0.978v0l0.498 0.289c2.005 1.166 2.974 2.452 2.908 3.86v0c-0.043 0.88-0.393 1.933-1.049 3.16v0c-0.32 0.606-0.67 1.235-1.049 1.887-0.383 0.658-0.752 1.252-1.108 1.781-0.353 0.538-0.718 1.013-1.094 1.424-0.377 0.411-0.773 0.746-1.191 1.005-0.414 0.268-0.868 0.437-1.36 0.505v0c-1.008 0.149-2.158-0.152-3.451-0.903zM205.342 31.323l0.48 0.279c0.598 0.348 1.13 0.572 1.597 0.674 0.464 0.092 0.903 0.044 1.319-0.143v0c0.774-0.358 1.654-1.386 2.64-3.082v0l0.511-0.879c0.474-0.815 0.874-1.552 1.201-2.211 0.324-0.668 0.519-1.274 0.584-1.818v0c0.144-1.137-0.434-2.082-1.732-2.837v0l-0.68-0.395c-1.317-0.765-2.407-0.829-3.27-0.192v0c-0.542 0.404-1.039 0.968-1.491 1.69-0.449 0.717-0.842 1.365-1.18 1.945v0l-0.51 0.878c-0.923 1.588-1.338 2.85-1.244 3.786v0c0.09 0.901 0.682 1.669 1.775 2.305z" fill="#000000" data-fill-palette-color="primary"></path><path d="M220.735 37.776v0c-0.216-0.143-0.578-0.405-1.088-0.785-0.515-0.384-1.174-0.984-1.977-1.8v0l-2.831 3.797-1.277-0.952 8.536-11.451c1.556 0.951 3.057 1.965 4.502 3.042v0c1.21 0.902 1.854 1.809 1.932 2.721v0c0.067 0.764-0.295 1.675-1.083 2.734v0l-0.664 0.891c-0.614 0.823-1.225 1.457-1.835 1.9v0c-1.292 0.927-2.697 0.895-4.215-0.097zM225.843 30.749v0c-1.372-1.023-2.435-1.771-3.188-2.246v0l-4.196 5.629c0.792 0.773 1.529 1.414 2.213 1.924 0.683 0.509 1.211 0.824 1.583 0.944 0.368 0.126 0.721 0.137 1.06 0.033v0c0.572-0.183 1.291-0.855 2.155-2.014v0l0.695-0.933c0.534-0.717 0.776-1.334 0.726-1.85v0c-0.049-0.507-0.398-1.003-1.048-1.487z" fill="#000000" data-fill-palette-color="primary"></path><path d="M231.375 47.081v0c-0.199-0.166-0.531-0.465-0.996-0.898-0.471-0.438-1.061-1.105-1.772-2.003v0l-3.224 3.469-1.167-1.084 9.723-10.463c1.445 1.114 2.827 2.284 4.147 3.511v0c1.105 1.027 1.648 1.998 1.627 2.914v0c-0.016 0.767-0.474 1.634-1.373 2.601v0l-0.756 0.813c-0.699 0.752-1.375 1.316-2.029 1.691v0c-1.385 0.782-2.778 0.599-4.18-0.551zM237.212 40.646v0c-1.254-1.165-2.229-2.024-2.927-2.577v0l-4.779 5.143c0.704 0.854 1.368 1.571 1.992 2.152 0.624 0.58 1.115 0.95 1.472 1.11 0.352 0.165 0.702 0.214 1.05 0.147v0c0.589-0.12 1.375-0.71 2.36-1.77v0l0.792-0.852c0.609-0.655 0.916-1.242 0.921-1.762v0c0.006-0.509-0.288-1.04-0.881-1.591z" fill="#000000" data-fill-palette-color="primary"></path><path d="M233.907 56.205l10.799-9.428 5.341 6.118-1.042 0.91-4.293-4.918-3.726 3.253 3.466 3.97-1.042 0.91-3.466-3.971-3.955 3.453 4.459 5.107-1.034 0.903z" fill="#000000" data-fill-palette-color="primary"></path><path d="M246.824 61.6l6.321-4.456 0.912 1.293-6.261 4.414c-1.239 0.874-2.045 1.519-2.418 1.935-0.375 0.426-0.626 0.792-0.753 1.096-0.132 0.298-0.186 0.61-0.162 0.934v0c0.041 0.604 0.323 1.277 0.846 2.019 0.523 0.742 0.981 1.258 1.372 1.546 0.391 0.288 0.825 0.418 1.301 0.391 0.482-0.032 1.035-0.217 1.66-0.555 0.635-0.336 1.406-0.825 2.314-1.465v0l6.261-4.414 0.905 1.285-6.217 4.383c-1.313 0.926-2.252 1.515-2.818 1.769-0.565 0.253-1.082 0.417-1.551 0.491-0.469 0.074-0.935 0.044-1.398-0.091v0c-0.982-0.29-1.931-1.083-2.844-2.38v0c-1.361-1.93-1.687-3.563-0.98-4.899v0c0.395-0.749 1.089-1.499 2.081-2.25v0c0.456-0.347 0.933-0.696 1.429-1.046z" fill="#000000" data-fill-palette-color="primary"></path><path d="M250.004 76.607l1.446-0.083c0.021 1.603 0.355 3 1.002 4.19v0c0.751 1.381 1.633 1.951 2.648 1.71v0c0.335-0.087 0.689-0.232 1.063-0.436v0l0.322-0.175c0.387-0.21 0.682-0.406 0.885-0.588 0.209-0.185 0.341-0.404 0.395-0.656v0c0.089-0.422-0.073-1.209-0.485-2.361v0c-0.37-1.031-0.589-1.763-0.657-2.195-0.062-0.436-0.08-0.812-0.053-1.128 0.033-0.32 0.121-0.626 0.264-0.919v0c0.314-0.608 0.906-1.149 1.777-1.623v0l0.083-0.045c1.81-0.985 3.302-0.822 4.476 0.488v0c0.371 0.419 0.72 0.929 1.047 1.53v0l0.06 0.111c0.764 1.405 1.188 2.666 1.27 3.782v0l-1.491 0.263c-0.121-1.334-0.43-2.458-0.928-3.373v0l-0.04-0.073c-0.547-1.006-1.113-1.593-1.697-1.761v0c-0.493-0.146-1.129-0.006-1.908 0.417v0l-0.037 0.02c-0.896 0.487-1.349 1.051-1.358 1.693v0c-0.001 0.438 0.167 1.126 0.503 2.065 0.329 0.942 0.562 1.647 0.696 2.114 0.132 0.477 0.169 0.926 0.112 1.346v0c-0.127 0.864-0.834 1.646-2.123 2.348v0l-0.11 0.06c-1.97 1.071-3.574 0.914-4.813-0.472v0c-0.386-0.418-0.698-0.845-0.935-1.281-0.237-0.436-0.435-0.837-0.595-1.203-0.163-0.373-0.308-0.763-0.434-1.172v0c-0.289-0.956-0.418-1.821-0.385-2.593z" fill="#000000" data-fill-palette-color="primary"></path><path d="M255.353 89.129l13.171-5.659 3.206 7.461-1.271 0.546-2.577-5.998-4.545 1.953 2.081 4.843-1.271 0.546-2.081-4.843-4.823 2.072 2.676 6.23-1.261 0.541z" fill="#000000" data-fill-palette-color="primary"></path><path d="M260.239 98.778l1.435 0.194c-0.285 1.577-0.224 3.012 0.185 4.305v0c0.474 1.499 1.231 2.226 2.273 2.183v0c0.345-0.021 0.721-0.096 1.127-0.224v0l0.349-0.111c0.42-0.133 0.747-0.269 0.981-0.409 0.241-0.142 0.412-0.332 0.513-0.569v0c0.167-0.397 0.159-1.201-0.026-2.409v0c-0.167-1.083-0.242-1.843-0.226-2.281 0.022-0.439 0.077-0.812 0.163-1.117 0.093-0.308 0.238-0.592 0.434-0.852v0c0.424-0.537 1.109-0.955 2.055-1.254v0l0.09-0.028c1.965-0.621 3.399-0.177 4.301 1.333v0c0.284 0.482 0.529 1.049 0.735 1.701v0l0.038 0.12c0.482 1.525 0.657 2.844 0.525 3.956v0l-1.514-0.027c0.136-1.332 0.047-2.495-0.267-3.488v0l-0.025-0.08c-0.345-1.092-0.789-1.776-1.33-2.052v0c-0.456-0.237-1.107-0.222-1.953 0.046v0l-0.04 0.013c-0.973 0.307-1.524 0.775-1.656 1.402v0c-0.084 0.43-0.051 1.137 0.1 2.123 0.144 0.988 0.237 1.724 0.28 2.208 0.039 0.493-0.01 0.941-0.147 1.343v0c-0.289 0.824-1.133 1.457-2.531 1.9v0l-0.12 0.038c-2.138 0.676-3.683 0.215-4.635-1.382v0c-0.3-0.484-0.524-0.963-0.674-1.435-0.149-0.473-0.268-0.904-0.354-1.295-0.089-0.397-0.156-0.808-0.203-1.233v0c-0.102-0.994-0.063-1.867 0.117-2.619z" fill="#000000" data-fill-palette-color="primary"></path><path d="M7.566 179.678l13.745-4.071 2.339 7.898-1.326 0.392-1.887-6.37-5.406 1.601 1.637 5.526-1.316 0.39-1.637-5.526-5.697 1.687z" fill="#000000" data-fill-palette-color="primary"></path><path d="M11.755 192.192l13.224-5.424c0.914 1.823 1.632 3.37 2.154 4.644v0l0.072 0.174c0.573 1.396 0.659 2.501 0.26 3.314v0c-0.343 0.692-1.122 1.287-2.337 1.785v0c-1.564 0.642-2.819 0.896-3.765 0.763v0c-0.964-0.141-1.759-0.698-2.384-1.672v0c-0.166 0.295-0.342 0.593-0.528 0.895v0l-0.53 0.807-2.488 3.682-0.707-1.726 2.322-3.285c0.612-0.9 1-1.539 1.162-1.916v0l-0.04-0.097c-0.161-0.41-0.313-0.808-0.456-1.194v0l-0.468-1.281-4.886 2.005zM24.478 188.695l-6.059 2.485c0.223 0.618 0.601 1.577 1.134 2.876v0c0.44 1.073 1.039 1.677 1.797 1.812v0c0.659 0.115 1.644-0.097 2.956-0.635v0c1.105-0.453 1.725-0.995 1.86-1.624v0c0.09-0.369 0.073-0.732-0.051-1.089-0.115-0.353-0.225-0.659-0.331-0.917-0.103-0.252-0.207-0.496-0.312-0.733-0.101-0.246-0.202-0.483-0.304-0.714-0.105-0.236-0.212-0.472-0.323-0.705v0z" fill="#000000" data-fill-palette-color="primary"></path><path d="M17.066 204.246l14.815-2.836 1.056 1.906-10.111 11.335-0.822-1.485 2.986-3.282-2.797-5.052-4.33 0.853zM23.575 204.559l2.37 4.281 5.354-5.863-1.072 0.27z" fill="#000000" data-fill-palette-color="primary"></path><path d="M25.415 218.546l11.78-8.168 0.723 1.042-4.804 11.351-0.966 1.716 1.499-1.295 8.396-5.821 0.83 1.197-11.78 8.167-0.764-1.102 4.811-11.305 0.845-1.594-1.447 1.259-8.293 5.75z" fill="#000000" data-fill-palette-color="primary"></path><path d="M39.477 234.655l0.056 0.063c0.675 0.765 1.501 1.406 2.478 1.923v0l-0.697 1.159c-0.492-0.199-0.997-0.518-1.514-0.957-0.512-0.433-0.939-0.843-1.281-1.231v0l-0.083-0.094c-1.469-1.666-1.977-3.207-1.522-4.624v0c0.271-0.854 0.867-1.752 1.788-2.694v0c0.444-0.447 0.949-0.92 1.514-1.42 0.561-0.494 1.107-0.953 1.638-1.375 0.536-0.417 1.058-0.765 1.565-1.045 0.508-0.28 1.005-0.476 1.492-0.589 0.492-0.118 0.986-0.129 1.48-0.034v0c1.013 0.187 2.032 0.862 3.058 2.026v0c0.661 0.749 1.145 1.393 1.453 1.932 0.307 0.549 0.501 0.927 0.582 1.135v0l-1.394 0.67c-0.489-1.199-1.018-2.12-1.586-2.764-0.573-0.65-1.093-1.081-1.559-1.294-0.462-0.207-0.962-0.251-1.499-0.131v0c-0.919 0.205-2.245 1.072-3.979 2.602v0l-0.519 0.457c-1.43 1.262-2.267 2.325-2.509 3.191v0c-0.269 0.973 0.077 2.004 1.038 3.094z" fill="#000000" data-fill-palette-color="primary"></path><path d="M43.152 240.191l13.14-7.408 1.608 1.471-5.972 13.965-1.253-1.146 1.785-4.062-4.26-3.898-3.834 2.188zM49.422 238.414l3.611 3.303 3.207-7.263-0.93 0.598z" fill="#000000" data-fill-palette-color="primary"></path><path d="M55.596 251.158l8.923-11.22 1.239 0.985-8.923 11.22z" fill="#000000" data-fill-palette-color="primary"></path><path d="M61.58 254.357l1.237-0.753c0.773 1.405 1.725 2.48 2.856 3.225v0c1.312 0.865 2.359 0.953 3.14 0.263v0c0.255-0.234 0.499-0.529 0.734-0.884v0l0.202-0.307c0.242-0.367 0.41-0.679 0.504-0.935 0.097-0.262 0.111-0.517 0.039-0.765v0c-0.12-0.414-0.633-1.032-1.538-1.855v0c-0.812-0.736-1.349-1.279-1.613-1.628-0.26-0.355-0.452-0.679-0.578-0.97-0.122-0.298-0.188-0.609-0.199-0.935v0c-0.009-0.684 0.259-1.44 0.805-2.268v0l0.052-0.079c1.134-1.721 2.527-2.279 4.179-1.675v0c0.524 0.195 1.072 0.481 1.644 0.857v0l0.105 0.069c1.336 0.88 2.302 1.794 2.9 2.741v0l-1.193 0.933c-0.734-1.12-1.536-1.966-2.405-2.539v0l-0.07-0.047c-0.957-0.631-1.732-0.882-2.326-0.755v0c-0.503 0.103-0.999 0.525-1.487 1.266v0l-0.023 0.035c-0.561 0.852-0.695 1.562-0.402 2.133v0c0.205 0.386 0.677 0.915 1.415 1.585 0.734 0.676 1.27 1.189 1.609 1.538 0.341 0.359 0.585 0.737 0.733 1.136v0c0.295 0.822 0.039 1.845-0.769 3.07v0l-0.069 0.105c-1.234 1.872-2.724 2.488-4.469 1.848v0c-0.538-0.187-1.014-0.417-1.428-0.69-0.414-0.273-0.778-0.534-1.091-0.782-0.319-0.252-0.631-0.529-0.934-0.829v0c-0.705-0.707-1.225-1.41-1.56-2.108z" fill="#000000" data-fill-palette-color="primary"></path><path d="M73.449 262.847l6.756-12.643 7.162 3.827-0.652 1.22-5.757-3.076-2.331 4.362 4.649 2.484-0.652 1.22-4.649-2.484-2.474 4.63 5.979 3.195-0.646 1.211z" fill="#000000" data-fill-palette-color="primary"></path><path d="M91.394 271.129l4.756-13.434c0 0 0.453 0.123 1.359 0.37v0c1.361 0.363 2.437 0.685 3.227 0.965 0.79 0.28 1.412 0.533 1.865 0.76 0.444 0.231 0.817 0.486 1.119 0.763 0.304 0.271 0.535 0.582 0.692 0.934 0.159 0.345 0.247 0.747 0.263 1.205v0c0.039 0.851-0.203 2.018-0.728 3.5v0l-0.486 1.373c-0.618 1.745-1.216 3.027-1.795 3.844v0c-0.674 0.94-1.481 1.503-2.421 1.689v0c-0.974 0.196-2.234 0.02-3.781-0.528v0zM102.917 262.414c-0.092-0.41-0.308-0.772-0.65-1.086-0.341-0.313-0.926-0.617-1.756-0.911-0.83-0.294-1.925-0.622-3.286-0.985v0l-3.882 10.964 2.805 0.994c1.1 0.389 1.976 0.5 2.629 0.33v0c0.644-0.165 1.205-0.641 1.684-1.427v0c0.396-0.638 0.87-1.734 1.419-3.288v0l0.49-1.383c0.52-1.469 0.702-2.538 0.547-3.208z" fill="#000000" data-fill-palette-color="primary"></path><path d="M107.119 276.032l3.225-13.968 7.913 1.827-0.312 1.348-6.361-1.469-1.112 4.82 5.136 1.185-0.312 1.348-5.135-1.186-1.181 5.116 6.606 1.525-0.309 1.337z" fill="#000000" data-fill-palette-color="primary"></path><path d="M118.816 277.447l0.779-1.22c1.312 0.921 2.64 1.468 3.985 1.64v0c1.559 0.199 2.538-0.182 2.935-1.146v0c0.126-0.322 0.216-0.694 0.27-1.117v0l0.046-0.364c0.056-0.437 0.069-0.79 0.041-1.062-0.028-0.278-0.128-0.513-0.301-0.704v0c-0.29-0.319-1.023-0.648-2.197-0.989v0c-1.053-0.304-1.774-0.554-2.165-0.752-0.389-0.205-0.705-0.411-0.946-0.617-0.24-0.214-0.437-0.464-0.59-0.752v0c-0.309-0.61-0.401-1.407-0.275-2.391v0l0.012-0.094c0.262-2.044 1.267-3.159 3.016-3.343v0c0.556-0.056 1.174-0.04 1.853 0.047v0l0.125 0.016c1.587 0.203 2.857 0.598 3.81 1.184v0l-0.661 1.363c-1.152-0.683-2.245-1.09-3.277-1.222v0l-0.083-0.01c-1.136-0.145-1.943-0.03-2.421 0.345v0c-0.406 0.314-0.666 0.911-0.778 1.791v0l-0.006 0.042c-0.129 1.012 0.063 1.709 0.578 2.091v0c0.355 0.257 1.011 0.524 1.968 0.802 0.957 0.284 1.664 0.509 2.122 0.672 0.464 0.172 0.85 0.405 1.157 0.698v0c0.626 0.608 0.847 1.64 0.661 3.095v0l-0.016 0.125c-0.285 2.224-1.351 3.433-3.2 3.626v0c-0.565 0.069-1.094 0.071-1.586 0.008-0.492-0.063-0.933-0.137-1.324-0.222-0.397-0.086-0.799-0.197-1.204-0.333v0c-0.944-0.325-1.72-0.727-2.328-1.207z" fill="#000000" data-fill-palette-color="primary"></path><path d="M139.779 280l-0.275-14.249c0 0 0.467-0.044 1.402-0.131v0c1.402-0.139 2.522-0.216 3.36-0.233 0.838-0.016 1.509 0.002 2.013 0.055 0.497 0.06 0.936 0.167 1.316 0.321 0.38 0.146 0.706 0.357 0.977 0.631 0.271 0.267 0.494 0.612 0.67 1.035v0c0.337 0.783 0.52 1.96 0.55 3.532v0l0.028 1.456c0.036 1.851-0.073 3.261-0.327 4.23v0c-0.3 1.117-0.857 1.928-1.672 2.432v0c-0.842 0.526-2.084 0.805-3.725 0.838v0zM147.498 267.787c-0.23-0.352-0.56-0.615-0.99-0.788-0.43-0.173-1.084-0.252-1.964-0.234-0.88 0.017-2.021 0.095-3.423 0.234v0l0.225 11.629 2.975-0.057c1.166-0.023 2.025-0.228 2.577-0.616v0c0.545-0.381 0.903-1.024 1.074-1.928v0c0.146-0.736 0.204-1.929 0.172-3.578v0l-0.029-1.466c-0.03-1.558-0.236-2.623-0.617-3.196z" fill="#000000" data-fill-palette-color="primary"></path><path d="M156.223 279.057l-1.894-14.21 8.05-1.072 0.183 1.371-6.471 0.862 0.653 4.903 5.225-0.696 0.182 1.371-5.224 0.696 0.693 5.204 6.721-0.896 0.181 1.361z" fill="#000000" data-fill-palette-color="primary"></path><path d="M172.545 276.046l-8.204-12.757 1.68-0.412 6.114 9.742 0.925 1.747 0.062-1.99 0.826-11.446 1.659-0.407-1.271 15.084z" fill="#000000" data-fill-palette-color="primary"></path><path d="M183.587 272.93l-4.738-13.529 7.665-2.684 0.457 1.305-6.161 2.158 1.635 4.668 4.974-1.742 0.457 1.305-4.974 1.742 1.735 4.955 6.399-2.241 0.453 1.296z" fill="#000000" data-fill-palette-color="primary"></path><path d="M195.87 268.17l-5.961-13.037 1.449-0.662 5.39 11.789 5.165-2.362 0.571 1.249z" fill="#000000" data-fill-palette-color="primary"></path><path d="M210.955 260.469l-0.499 0.29c-1.927 1.12-3.546 1.253-4.858 0.4v0c-0.773-0.496-1.534-1.31-2.281-2.444v0c-0.35-0.532-0.712-1.121-1.088-1.767-0.376-0.646-0.713-1.275-1.011-1.885-0.301-0.601-0.534-1.168-0.699-1.703-0.156-0.532-0.239-1.037-0.25-1.515-0.002-0.476 0.09-0.929 0.275-1.36v0c0.398-0.886 1.237-1.701 2.518-2.445v0l0.498-0.29c2.005-1.166 3.603-1.371 4.793-0.617v0c0.744 0.473 1.486 1.298 2.227 2.475v0c0.368 0.578 0.742 1.193 1.121 1.845 0.383 0.658 0.716 1.273 0.999 1.844 0.293 0.573 0.525 1.125 0.696 1.656 0.171 0.531 0.266 1.041 0.284 1.531 0.028 0.493-0.05 0.97-0.233 1.433v0c-0.369 0.95-1.2 1.8-2.492 2.552zM209.777 259.59l0.48-0.279c0.598-0.348 1.056-0.699 1.375-1.054 0.309-0.358 0.486-0.763 0.529-1.217v0c0.072-0.85-0.386-2.123-1.372-3.82v0l-0.511-0.879c-0.474-0.815-0.916-1.528-1.328-2.137-0.42-0.612-0.851-1.081-1.29-1.407v0c-0.917-0.687-2.024-0.653-3.323 0.101v0l-0.68 0.395c-1.317 0.765-1.912 1.681-1.784 2.747v0c0.083 0.671 0.327 1.382 0.73 2.133 0.401 0.745 0.77 1.407 1.107 1.987v0l0.511 0.878c0.923 1.588 1.815 2.573 2.675 2.954v0c0.828 0.367 1.788 0.233 2.881-0.402z" fill="#000000" data-fill-palette-color="primary"></path><path d="M222.026 247.24v0c-0.199 0.166-0.553 0.438-1.063 0.818-0.515 0.384-1.279 0.844-2.291 1.381v0l2.831 3.797-1.277 0.952-8.536-11.451c1.356-1.22 2.757-2.369 4.202-3.446v0c1.21-0.902 2.263-1.26 3.159-1.074v0c0.751 0.154 1.521 0.761 2.311 1.82v0l0.663 0.89c0.614 0.823 1.046 1.59 1.297 2.301v0c0.52 1.504 0.087 2.841-1.296 4.012zM216.75 240.338v0c-1.372 1.023-2.393 1.827-3.063 2.413v0l4.196 5.629c0.967-0.538 1.792-1.061 2.476-1.571 0.683-0.509 1.136-0.925 1.357-1.247 0.226-0.316 0.337-0.652 0.334-1.007v0c-0.012-0.601-0.45-1.481-1.314-2.64v0l-0.695-0.933c-0.534-0.717-1.056-1.125-1.567-1.224v0c-0.5-0.098-1.075 0.095-1.724 0.58z" fill="#000000" data-fill-palette-color="primary"></path><path d="M232.845 237.785v0c-0.18 0.186-0.503 0.496-0.968 0.929-0.471 0.438-1.18 0.977-2.128 1.62v0l3.224 3.469-1.167 1.085-9.722-10.463c1.216-1.359 2.485-2.652 3.805-3.879v0c1.105-1.027 2.114-1.497 3.025-1.409v0c0.764 0.072 1.595 0.592 2.493 1.559v0l0.756 0.814c0.699 0.752 1.212 1.468 1.538 2.147v0c0.679 1.439 0.394 2.815-0.856 4.128zM226.855 231.493v0c-1.254 1.165-2.182 2.075-2.784 2.731v0l4.779 5.143c0.903-0.639 1.667-1.249 2.292-1.829 0.624-0.58 1.029-1.042 1.215-1.387 0.19-0.339 0.265-0.685 0.223-1.037v0c-0.077-0.596-0.608-1.424-1.592-2.483v0l-0.792-0.852c-0.609-0.655-1.172-1.004-1.689-1.048v0c-0.508-0.043-1.058 0.211-1.652 0.762z" fill="#000000" data-fill-palette-color="primary"></path><path d="M242.307 234.413l-10.799-9.428 5.341-6.117 1.042 0.909-4.293 4.918 3.726 3.253 3.466-3.971 1.042 0.91-3.466 3.971 3.954 3.452 4.459-5.107 1.034 0.902z" fill="#000000" data-fill-palette-color="primary"></path><path d="M245.146 220.501l-6.32-4.456 0.911-1.293 6.261 4.414c1.239 0.874 2.117 1.416 2.635 1.627 0.528 0.21 0.956 0.323 1.285 0.342 0.325 0.024 0.636-0.03 0.935-0.162v0c0.555-0.241 1.094-0.733 1.617-1.475 0.523-0.742 0.855-1.346 0.995-1.812 0.14-0.465 0.117-0.918-0.07-1.356-0.192-0.443-0.552-0.902-1.08-1.378-0.53-0.485-1.249-1.047-2.157-1.687v0l-6.26-4.414 0.905-1.284 6.218 4.383c1.313 0.926 2.184 1.612 2.612 2.06 0.428 0.447 0.756 0.879 0.984 1.296 0.228 0.417 0.355 0.866 0.384 1.347v0c0.057 1.023-0.372 2.182-1.286 3.479v0c-1.361 1.93-2.789 2.786-4.286 2.569v0c-0.838-0.121-1.777-0.522-2.817-1.205v0c-0.48-0.313-0.969-0.645-1.466-0.995z" fill="#000000" data-fill-palette-color="primary"></path><path d="M258.142 211.104l-0.855-1.169c1.334-0.889 2.325-1.928 2.972-3.119v0c0.751-1.381 0.75-2.431-0.004-3.151v0c-0.255-0.234-0.569-0.453-0.943-0.656v0l-0.322-0.176c-0.387-0.21-0.712-0.351-0.975-0.422-0.269-0.075-0.524-0.067-0.765 0.025v0c-0.402 0.155-0.975 0.718-1.718 1.69v0c-0.665 0.871-1.16 1.453-1.486 1.744-0.332 0.289-0.638 0.508-0.918 0.658-0.286 0.146-0.591 0.239-0.915 0.278v0c-0.681 0.067-1.457-0.136-2.328-0.61v0l-0.083-0.045c-1.81-0.985-2.485-2.325-2.023-4.023v0c0.15-0.539 0.388-1.109 0.716-1.71v0l0.06-0.11c0.764-1.405 1.593-2.446 2.485-3.122v0l1.03 1.109c-1.054 0.826-1.829 1.697-2.326 2.611v0l-0.04 0.074c-0.547 1.006-0.733 1.8-0.556 2.382v0c0.146 0.493 0.608 0.951 1.388 1.375v0l0.036 0.02c0.896 0.487 1.616 0.561 2.159 0.219v0c0.368-0.237 0.854-0.752 1.46-1.544 0.612-0.789 1.077-1.366 1.396-1.733 0.328-0.37 0.685-0.645 1.07-0.826v0c0.794-0.363 1.835-0.195 3.124 0.506v0l0.11 0.06c1.97 1.071 2.71 2.504 2.22 4.297v0c-0.141 0.552-0.33 1.045-0.567 1.481-0.237 0.436-0.466 0.82-0.686 1.153-0.224 0.339-0.473 0.673-0.748 1.001v0c-0.645 0.762-1.301 1.34-1.968 1.733z" fill="#000000" data-fill-palette-color="primary"></path><path d="M265.597 198.558l-13.17-5.66 3.206-7.461 1.271 0.546-2.578 5.998 4.545 1.953 2.08-4.843 1.271 0.546-2.081 4.843 4.824 2.072 2.676-6.229 1.262 0.542z" fill="#000000" data-fill-palette-color="primary"></path><path d="M269.072 187.299l-1.062-0.984c1.14-1.127 1.915-2.336 2.323-3.629v0c0.474-1.499 0.272-2.53-0.605-3.092v0c-0.294-0.181-0.645-0.336-1.052-0.464v0l-0.349-0.111c-0.42-0.133-0.765-0.209-1.038-0.229-0.279-0.022-0.527 0.035-0.746 0.171v0c-0.365 0.229-0.82 0.891-1.364 1.986v0c-0.486 0.982-0.861 1.647-1.126 1.996-0.271 0.347-0.529 0.62-0.776 0.821-0.253 0.198-0.535 0.347-0.845 0.447v0c-0.655 0.196-1.456 0.144-2.401-0.155v0l-0.09-0.028c-1.965-0.621-2.883-1.809-2.754-3.563v0c0.044-0.557 0.17-1.163 0.376-1.815v0l0.038-0.12c0.482-1.525 1.097-2.705 1.844-3.538v0l1.224 0.892c-0.877 1.012-1.472 2.015-1.786 3.007v0l-0.025 0.08c-0.345 1.092-0.376 1.907-0.092 2.444v0c0.237 0.456 0.778 0.818 1.625 1.085v0l0.04 0.012c0.973 0.307 1.693 0.242 2.161-0.196v0c0.316-0.303 0.695-0.901 1.138-1.794 0.45-0.891 0.797-1.547 1.04-1.968 0.252-0.426 0.549-0.764 0.892-1.015v0c0.71-0.508 1.765-0.541 3.164-0.099v0l0.12 0.038c2.138 0.676 3.138 1.941 2.998 3.795v0c-0.033 0.568-0.124 1.089-0.274 1.562-0.149 0.473-0.301 0.894-0.454 1.263-0.155 0.376-0.336 0.751-0.542 1.125v0c-0.488 0.871-1.022 1.564-1.602 2.076z" fill="#000000" data-fill-palette-color="primary"></path><path d="M2.414 141.642c0-3.066 2.485-5.551 5.55-5.55 3.066 0 5.551 2.485 5.551 5.55 0 3.066-2.485 5.551-5.551 5.551-3.066 0-5.551-2.485-5.55-5.551z" fill="#000000" data-fill-palette-color="primary"></path><path d="M266.485 141.642c0-3.066 2.485-5.551 5.551-5.55 3.066 0 5.551 2.485 5.55 5.55 0 3.066-2.485 5.551-5.55 5.551-3.066 0-5.551-2.485-5.551-5.551z" fill="#000000" data-fill-palette-color="primary"></path></g></svg></g></svg></g></svg></g></svg></g><defs></defs></svg><rect width="280" height="280" fill="none" stroke="none" visibility="hidden"></rect></g></svg></g></svg>