<svg xmlns="http://www.w3.org/2000/svg" width="280" height="280" viewBox="0 0 280 280">
    <g transform="matrix(1,0,0,1,115,115)">
        <path d="M33.34 26.83 36.17 24l-2.83-2.83 1.42-1.41 2.83 2.83L39 24l-1.41 1.41-2.83 2.83Zm-20.1-7.07-2.83 2.83L9 24l1.41 1.41 2.83 2.83 1.42-1.41L11.83 24l2.83-2.83ZM46 12v24L24 48 2 36V12L24 0Zm-2 1.19L24 2.28 4 13.19v21.62l20 10.91 20-10.91ZM20.89 32.45l8-16-1.78-.9-8 16Z" />
    </g>
    <g>
        <animateTransform attributeName="transform" type="rotate" dur="60s" values="0 140 140;360 140 140" repeatCount="indefinite" />
        <path d="m18.257 106.773-13.745-4.071 2.339-7.897 1.326.393-1.886 6.37 5.405 1.601 1.637-5.526 1.316.389-1.637 5.526 5.697 1.688zM22.071 95.324 8.847 89.9c.629-1.939 1.205-3.545 1.727-4.819l.072-.174c.573-1.396 1.286-2.243 2.141-2.542.73-.252 1.703-.129 2.918.37 1.564.642 2.636 1.342 3.216 2.1.587.777.762 1.732.524 2.865.325-.093.66-.182 1.004-.267l.944-.202 4.356-.875-.707 1.726-3.961.709c-1.068.211-1.792.394-2.172.547l-.04.097c-.173.405-.345.795-.514 1.171l-.566 1.24 4.887 2.004zM10.557 88.88l6.059 2.485a81.37 81.37 0 0 0 1.212-2.844c.44-1.073.438-1.923-.007-2.551-.388-.544-1.239-1.086-2.55-1.624-1.105-.453-1.927-.503-2.465-.15-.323.2-.566.47-.729.811-.166.332-.303.627-.408.886-.103.252-.201.499-.293.74a31.752 31.752 0 0 0-.55 1.451zM26.821 84.439l-10.268-11.05 1.056-1.907 14.972 2.552-.822 1.485-4.366-.788-2.797 5.051L27.617 83zm-3.19-5.682 2.37-4.282-7.811-1.425.798.765zM34.578 71.092l-11.781-8.168.723-1.042 12.315.518 1.945.303-1.738-.95-8.396-5.821.83-1.197 11.78 8.167-.764 1.103-12.274-.541-1.79-.233 1.687.914 8.293 5.75zM46.095 54.466l.055-.063c.675-.765 1.207-1.664 1.598-2.699l1.237.546c-.136.513-.389 1.054-.76 1.622a12.39 12.39 0 0 1-1.061 1.425l-.083.095c-1.469 1.666-2.935 2.362-4.398 2.087-.881-.163-1.847-.641-2.896-1.437a31.334 31.334 0 0 1-1.598-1.325 41.992 41.992 0 0 1-1.569-1.453c-.48-.48-.891-.954-1.232-1.423a5.843 5.843 0 0 1-.771-1.407 3.469 3.469 0 0 1-.218-1.463c.059-1.028.602-2.124 1.627-3.287.661-.749 1.239-1.31 1.736-1.683.506-.373.857-.613 1.054-.72l.838 1.299c-1.128.635-1.977 1.275-2.545 1.919-.573.65-.936 1.219-1.088 1.709-.148.484-.129.986.057 1.504.318.886 1.344 2.093 3.079 3.623l.518.457c1.43 1.262 2.59 1.958 3.48 2.091.999.145 1.979-.327 2.94-1.417zM50.679 51.321l-6.213-13.746 1.609-1.471 13.379 7.189-1.253 1.145-3.887-2.138-4.26 3.897 1.838 4.013zm-1.214-6.403 3.611-3.303-6.95-3.84.513.98zM62.537 40.854l-8.923-11.22 1.238-.985 8.923 11.22zM66.678 36.662l-.204-1.434c1.595-.156 2.959-.608 4.09-1.353 1.312-.865 1.805-1.793 1.479-2.782a4.771 4.771 0 0 0-.523-1.023l-.202-.307c-.242-.367-.463-.645-.661-.831a1.198 1.198 0 0 0-.687-.338c-.428-.053-1.198.175-2.312.683-.996.456-1.707.736-2.131.84a5.07 5.07 0 0 1-1.12.148 2.709 2.709 0 0 1-.938-.185c-.632-.261-1.221-.806-1.767-1.634l-.052-.078c-1.134-1.721-1.098-3.221.108-4.502a8.181 8.181 0 0 1 1.436-1.172l.105-.07c1.336-.88 2.556-1.409 3.661-1.585l.388 1.464c-1.319.233-2.413.637-3.282 1.21l-.07.046c-.957.631-1.494 1.244-1.611 1.84-.103.503.089 1.125.577 1.866l.023.035c.561.852 1.162 1.255 1.802 1.209.436-.036 1.108-.262 2.015-.675a44.539 44.539 0 0 1 2.047-.873 3.345 3.345 0 0 1 1.333-.226c.872.053 1.711.692 2.518 1.917l.069.105c1.234 1.872 1.213 3.484-.063 4.836-.384.42-.783.767-1.197 1.04a15.96 15.96 0 0 1-1.148.695c-.358.194-.734.371-1.131.531-.928.369-1.779.57-2.552.603zM78.704 30.272l-6.756-12.644 7.163-3.827.652 1.22-5.758 3.077 2.331 4.362 4.648-2.484.652 1.22-4.649 2.484 2.475 4.63 5.979-3.195.647 1.211zM95.115 22.666 90.359 9.232l1.288-.567c1.286-.574 2.325-1.001 3.115-1.281s1.433-.474 1.928-.583c.491-.1.941-.137 1.351-.111.407.019.782.116 1.125.291.341.168.662.425.962.771.566.637 1.112 1.696 1.637 3.178l.486 1.373c.618 1.745.959 3.118 1.024 4.117.068 1.154-.205 2.1-.819 2.836-.633.765-1.724 1.422-3.271 1.969zm3.472-14.024a2.075 2.075 0 0 0-1.188-.435c-.462-.029-1.108.103-1.938.397-.83.294-1.888.728-3.174 1.302l3.882 10.964 2.805-.993c1.1-.389 1.85-.855 2.251-1.397.397-.533.534-1.256.411-2.169-.093-.745-.415-1.895-.966-3.449l-.489-1.383c-.52-1.469-1.051-2.414-1.594-2.837zM109.627 18.117 106.402 4.15l7.913-1.827.311 1.347-6.361 1.469 1.113 4.819 5.136-1.186.311 1.348-5.136 1.186 1.181 5.115 6.606-1.525.309 1.338zM119.991 15.026l.447-1.377c1.502.561 2.924.756 4.269.584 1.559-.199 2.41-.815 2.553-1.848a4.708 4.708 0 0 0-.02-1.149l-.047-.364c-.056-.437-.132-.782-.228-1.037a1.203 1.203 0 0 0-.468-.606c-.361-.236-1.153-.37-2.376-.404-1.095-.029-1.857-.09-2.284-.183a5.1 5.1 0 0 1-1.071-.36 2.706 2.706 0 0 1-.761-.578c-.453-.513-.742-1.261-.868-2.245l-.012-.094c-.262-2.044.431-3.376 2.077-3.995a8.228 8.228 0 0 1 1.806-.421l.125-.016c1.587-.203 2.915-.141 3.985.188l-.296 1.485c-1.287-.371-2.447-.49-3.479-.358l-.083.011c-1.136.145-1.889.46-2.256.943-.314.406-.415 1.05-.303 1.93l.006.042c.129 1.012.491 1.638 1.085 1.878.408.159 1.11.252 2.106.28a43.45 43.45 0 0 1 2.223.117c.492.05.924.178 1.296.384.759.431 1.232 1.374 1.418 2.829l.016.125c.285 2.224-.444 3.663-2.184 4.315a6.406 6.406 0 0 1-1.532.407c-.492.063-.938.102-1.338.119-.406.017-.823.01-1.249-.02-.996-.077-1.848-.271-2.557-.582zM139.564 14.433l.275-14.249 1.406-.077c1.406-.085 2.528-.119 3.367-.103.838.016 1.508.061 2.009.133.495.079.929.203 1.303.371.374.161.691.384.952.668.26.278.47.631.629 1.061.306.795.444 1.979.413 3.55l-.028 1.456c-.036 1.851-.199 3.256-.49 4.215-.343 1.104-.931 1.893-1.765 2.366-.862.493-2.114.724-3.755.692zm8.185-11.905a2.07 2.07 0 0 0-.959-.826c-.423-.19-1.074-.293-1.954-.31-.88-.017-2.023.017-3.429.101l-.225 11.629 2.976.058c1.166.023 2.033-.149 2.598-.516.559-.36.941-.988 1.148-1.885.175-.73.278-1.92.31-3.568l.028-1.467c.03-1.558-.134-2.63-.493-3.216zM154.75 15.28l1.893-14.209 8.05 1.072-.182 1.372-6.472-.863-.653 4.903 5.225.696-.183 1.371-5.225-.696-.693 5.204 6.721.895-.182 1.361zM169.881 18.087l-1.362-15.106 1.679.412.907 11.466.011 1.977.977-1.734 6.033-9.762 1.658.407-8.112 12.78zM179.902 20.878l4.738-13.529 7.665 2.684-.458 1.305-6.161-2.158-1.635 4.669 4.975 1.742-.457 1.305-4.975-1.742-1.735 4.955 6.399 2.241-.454 1.295zM191.234 25.255l5.96-13.037 1.449.662-5.39 11.789 5.165 2.361-.57 1.249zM205.161 32.781l-.498-.289c-1.927-1.12-2.844-2.461-2.752-4.024.048-.917.38-1.981.995-3.191.289-.567.622-1.174.998-1.821.376-.646.755-1.25 1.137-1.811a11.19 11.19 0 0 1 1.134-1.45 5.891 5.891 0 0 1 1.193-.967 3.367 3.367 0 0 1 1.318-.433c.967-.092 2.09.234 3.371.978l.498.289c2.005 1.166 2.974 2.452 2.908 3.86-.043.88-.393 1.933-1.049 3.16-.32.606-.67 1.235-1.049 1.887a32.378 32.378 0 0 1-1.108 1.781 11.245 11.245 0 0 1-1.094 1.424 5.697 5.697 0 0 1-1.191 1.005 3.309 3.309 0 0 1-1.36.505c-1.008.149-2.158-.152-3.451-.903zm.181-1.458.48.279c.598.348 1.13.572 1.597.674a2.13 2.13 0 0 0 1.319-.143c.774-.358 1.654-1.386 2.64-3.082l.511-.879c.474-.815.874-1.552 1.201-2.211.324-.668.519-1.274.584-1.818.144-1.137-.434-2.082-1.732-2.837l-.68-.395c-1.317-.765-2.407-.829-3.27-.192-.542.404-1.039.968-1.491 1.69a72.128 72.128 0 0 0-1.18 1.945l-.51.878c-.923 1.588-1.338 2.85-1.244 3.786.09.901.682 1.669 1.775 2.305zM220.735 37.776a28.423 28.423 0 0 1-1.088-.785c-.515-.384-1.174-.984-1.977-1.8l-2.831 3.797-1.277-.952 8.536-11.451a59.117 59.117 0 0 1 4.502 3.042c1.21.902 1.854 1.809 1.932 2.721.067.764-.295 1.675-1.083 2.734l-.664.891c-.614.823-1.225 1.457-1.835 1.9-1.292.927-2.697.895-4.215-.097zm5.108-7.027c-1.372-1.023-2.435-1.771-3.188-2.246l-4.196 5.629a22.39 22.39 0 0 0 2.213 1.924c.683.509 1.211.824 1.583.944a1.68 1.68 0 0 0 1.06.033c.572-.183 1.291-.855 2.155-2.014l.695-.933c.534-.717.776-1.334.726-1.85-.049-.507-.398-1.003-1.048-1.487zM231.375 47.081a28.393 28.393 0 0 1-.996-.898c-.471-.438-1.061-1.105-1.772-2.003l-3.224 3.469-1.167-1.084 9.723-10.463a58.958 58.958 0 0 1 4.147 3.511c1.105 1.027 1.648 1.998 1.627 2.914-.016.767-.474 1.634-1.373 2.601l-.756.813c-.699.752-1.375 1.316-2.029 1.691-1.385.782-2.778.599-4.18-.551zm5.837-6.435c-1.254-1.165-2.229-2.024-2.927-2.577l-4.779 5.143a22.544 22.544 0 0 0 1.992 2.152c.624.58 1.115.95 1.472 1.11.352.165.702.214 1.05.147.589-.12 1.375-.71 2.36-1.77l.792-.852c.609-.655.916-1.242.921-1.762.006-.509-.288-1.04-.881-1.591zM233.907 56.205l10.799-9.428 5.341 6.118-1.042.91-4.293-4.918-3.726 3.253 3.466 3.97-1.042.91-3.466-3.971-3.955 3.453 4.459 5.107-1.034.903zM246.824 61.6l6.321-4.456.912 1.293-6.261 4.414c-1.239.874-2.045 1.519-2.418 1.935-.375.426-.626.792-.753 1.096-.132.298-.186.61-.162.934.041.604.323 1.277.846 2.019.523.742.981 1.258 1.372 1.546.391.288.825.418 1.301.391.482-.032 1.035-.217 1.66-.555.635-.336 1.406-.825 2.314-1.465l6.261-4.414.905 1.285-6.217 4.383c-1.313.926-2.252 1.515-2.818 1.769-.565.253-1.082.417-1.551.491a3.17 3.17 0 0 1-1.398-.091c-.982-.29-1.931-1.083-2.844-2.38-1.361-1.93-1.687-3.563-.98-4.899.395-.749 1.089-1.499 2.081-2.25.456-.347.933-.696 1.429-1.046zM250.004 76.607l1.446-.083c.021 1.603.355 3 1.002 4.19.751 1.381 1.633 1.951 2.648 1.71a4.713 4.713 0 0 0 1.063-.436l.322-.175c.387-.21.682-.406.885-.588.209-.185.341-.404.395-.656.089-.422-.073-1.209-.485-2.361-.37-1.031-.589-1.763-.657-2.195a5.086 5.086 0 0 1-.053-1.128c.033-.32.121-.626.264-.919.314-.608.906-1.149 1.777-1.623l.083-.045c1.81-.985 3.302-.822 4.476.488.371.419.72.929 1.047 1.53l.06.111c.764 1.405 1.188 2.666 1.27 3.782l-1.491.263c-.121-1.334-.43-2.458-.928-3.373l-.04-.073c-.547-1.006-1.113-1.593-1.697-1.761-.493-.146-1.129-.006-1.908.417l-.037.02c-.896.487-1.349 1.051-1.358 1.693-.001.438.167 1.126.503 2.065.329.942.562 1.647.696 2.114.132.477.169.926.112 1.346-.127.864-.834 1.646-2.123 2.348l-.11.06c-1.97 1.071-3.574.914-4.813-.472a6.419 6.419 0 0 1-.935-1.281 15.767 15.767 0 0 1-.595-1.203 11.038 11.038 0 0 1-.434-1.172c-.289-.956-.418-1.821-.385-2.593zM255.353 89.129l13.171-5.659 3.206 7.461-1.271.546-2.577-5.998-4.545 1.953 2.081 4.843-1.271.546-2.081-4.843-4.823 2.072 2.676 6.23-1.261.541zM260.239 98.778l1.435.194c-.285 1.577-.224 3.012.185 4.305.474 1.499 1.231 2.226 2.273 2.183a4.734 4.734 0 0 0 1.127-.224l.349-.111c.42-.133.747-.269.981-.409.241-.142.412-.332.513-.569.167-.397.159-1.201-.026-2.409-.167-1.083-.242-1.843-.226-2.281.022-.439.077-.812.163-1.117.093-.308.238-.592.434-.852.424-.537 1.109-.955 2.055-1.254l.09-.028c1.965-.621 3.399-.177 4.301 1.333.284.482.529 1.049.735 1.701l.038.12c.482 1.525.657 2.844.525 3.956l-1.514-.027c.136-1.332.047-2.495-.267-3.488l-.025-.08c-.345-1.092-.789-1.776-1.33-2.052-.456-.237-1.107-.222-1.953.046l-.04.013c-.973.307-1.524.775-1.656 1.402-.084.43-.051 1.137.1 2.123.144.988.237 1.724.28 2.208a3.32 3.32 0 0 1-.147 1.343c-.289.824-1.133 1.457-2.531 1.9l-.12.038c-2.138.676-3.683.215-4.635-1.382a6.428 6.428 0 0 1-.674-1.435 15.31 15.31 0 0 1-.354-1.295 11.324 11.324 0 0 1-.203-1.233c-.102-.994-.063-1.867.117-2.619zM7.566 179.678l13.745-4.071 2.339 7.898-1.326.392-1.887-6.37-5.406 1.601 1.637 5.526-1.316.39-1.637-5.526-5.697 1.687zM11.755 192.192l13.224-5.424c.914 1.823 1.632 3.37 2.154 4.644l.072.174c.573 1.396.659 2.501.26 3.314-.343.692-1.122 1.287-2.337 1.785-1.564.642-2.819.896-3.765.763-.964-.141-1.759-.698-2.384-1.672-.166.295-.342.593-.528.895l-.53.807-2.488 3.682-.707-1.726 2.322-3.285c.612-.9 1-1.539 1.162-1.916l-.04-.097c-.161-.41-.313-.808-.456-1.194l-.468-1.281-4.886 2.005zm12.723-3.497-6.059 2.485c.223.618.601 1.577 1.134 2.876.44 1.073 1.039 1.677 1.797 1.812.659.115 1.644-.097 2.956-.635 1.105-.453 1.725-.995 1.86-1.624.09-.369.073-.732-.051-1.089a13.255 13.255 0 0 0-.331-.917 27.417 27.417 0 0 0-.312-.733 29.533 29.533 0 0 0-.627-1.419zM17.066 204.246l14.815-2.836 1.056 1.906-10.111 11.335-.822-1.485 2.986-3.282-2.797-5.052-4.33.853zm6.509.313 2.37 4.281 5.354-5.863-1.072.27zM25.415 218.546l11.78-8.168.723 1.042-4.804 11.351-.966 1.716 1.499-1.295 8.396-5.821.83 1.197-11.78 8.167-.764-1.102 4.811-11.305.845-1.594-1.447 1.259-8.293 5.75zM39.477 234.655l.056.063a8.674 8.674 0 0 0 2.478 1.923l-.697 1.159c-.492-.199-.997-.518-1.514-.957a12.292 12.292 0 0 1-1.281-1.231l-.083-.094c-1.469-1.666-1.977-3.207-1.522-4.624.271-.854.867-1.752 1.788-2.694.444-.447.949-.92 1.514-1.42a42.498 42.498 0 0 1 1.638-1.375 12.065 12.065 0 0 1 1.565-1.045 5.83 5.83 0 0 1 1.492-.589 3.47 3.47 0 0 1 1.48-.034c1.013.187 2.032.862 3.058 2.026.661.749 1.145 1.393 1.453 1.932.307.549.501.927.582 1.135l-1.394.67c-.489-1.199-1.018-2.12-1.586-2.764-.573-.65-1.093-1.081-1.559-1.294-.462-.207-.962-.251-1.499-.131-.919.205-2.245 1.072-3.979 2.602l-.519.457c-1.43 1.262-2.267 2.325-2.509 3.191-.269.973.077 2.004 1.038 3.094zM43.152 240.191l13.14-7.408 1.608 1.471-5.972 13.965-1.253-1.146 1.785-4.062-4.26-3.898-3.834 2.188zm6.27-1.777 3.611 3.303 3.207-7.263-.93.598zM55.596 251.158l8.923-11.22 1.239.985-8.923 11.22zM61.58 254.357l1.237-.753c.773 1.405 1.725 2.48 2.856 3.225 1.312.865 2.359.953 3.14.263.255-.234.499-.529.734-.884l.202-.307c.242-.367.41-.679.504-.935.097-.262.111-.517.039-.765-.12-.414-.633-1.032-1.538-1.855-.812-.736-1.349-1.279-1.613-1.628a5.142 5.142 0 0 1-.578-.97 2.684 2.684 0 0 1-.199-.935c-.009-.684.259-1.44.805-2.268l.052-.079c1.134-1.721 2.527-2.279 4.179-1.675a8.288 8.288 0 0 1 1.644.857l.105.069c1.336.88 2.302 1.794 2.9 2.741l-1.193.933c-.734-1.12-1.536-1.966-2.405-2.539l-.07-.047c-.957-.631-1.732-.882-2.326-.755-.503.103-.999.525-1.487 1.266l-.023.035c-.561.852-.695 1.562-.402 2.133.205.386.677.915 1.415 1.585.734.676 1.27 1.189 1.609 1.538.341.359.585.737.733 1.136.295.822.039 1.845-.769 3.07l-.069.105c-1.234 1.872-2.724 2.488-4.469 1.848a6.398 6.398 0 0 1-1.428-.69 15.553 15.553 0 0 1-1.091-.782 11.182 11.182 0 0 1-.934-.829c-.705-.707-1.225-1.41-1.56-2.108zM73.449 262.847l6.756-12.643 7.162 3.827-.652 1.22-5.757-3.076-2.331 4.362 4.649 2.484-.652 1.22-4.649-2.484-2.474 4.63 5.979 3.195-.646 1.211zM91.394 271.129l4.756-13.434 1.359.37c1.361.363 2.437.685 3.227.965.79.28 1.412.533 1.865.76a5.19 5.19 0 0 1 1.119.763c.304.271.535.582.692.934.159.345.247.747.263 1.205.039.851-.203 2.018-.728 3.5l-.486 1.373c-.618 1.745-1.216 3.027-1.795 3.844-.674.94-1.481 1.503-2.421 1.689-.974.196-2.234.02-3.781-.528zm11.523-8.715a2.072 2.072 0 0 0-.65-1.086c-.341-.313-.926-.617-1.756-.911-.83-.294-1.925-.622-3.286-.985l-3.882 10.964 2.805.994c1.1.389 1.976.5 2.629.33.644-.165 1.205-.641 1.684-1.427.396-.638.87-1.734 1.419-3.288l.49-1.383c.52-1.469.702-2.538.547-3.208zM107.119 276.032l3.225-13.968 7.913 1.827-.312 1.348-6.361-1.469-1.112 4.82 5.136 1.185-.312 1.348-5.135-1.186-1.181 5.116 6.606 1.525-.309 1.337zM118.816 277.447l.779-1.22c1.312.921 2.64 1.468 3.985 1.64 1.559.199 2.538-.182 2.935-1.146.126-.322.216-.694.27-1.117l.046-.364c.056-.437.069-.79.041-1.062a1.197 1.197 0 0 0-.301-.704c-.29-.319-1.023-.648-2.197-.989-1.053-.304-1.774-.554-2.165-.752a5.186 5.186 0 0 1-.946-.617 2.69 2.69 0 0 1-.59-.752c-.309-.61-.401-1.407-.275-2.391l.012-.094c.262-2.044 1.267-3.159 3.016-3.343a8.195 8.195 0 0 1 1.853.047l.125.016c1.587.203 2.857.598 3.81 1.184l-.661 1.363c-1.152-.683-2.245-1.09-3.277-1.222l-.083-.01c-1.136-.145-1.943-.03-2.421.345-.406.314-.666.911-.778 1.791l-.006.042c-.129 1.012.063 1.709.578 2.091.355.257 1.011.524 1.968.802.957.284 1.664.509 2.122.672.464.172.85.405 1.157.698.626.608.847 1.64.661 3.095l-.016.125c-.285 2.224-1.351 3.433-3.2 3.626a6.387 6.387 0 0 1-1.586.008 15.607 15.607 0 0 1-1.324-.222 11.3 11.3 0 0 1-1.204-.333c-.944-.325-1.72-.727-2.328-1.207zM139.779 280l-.275-14.249 1.402-.131c1.402-.139 2.522-.216 3.36-.233.838-.016 1.509.002 2.013.055.497.06.936.167 1.316.321.38.146.706.357.977.631.271.267.494.612.67 1.035.337.783.52 1.96.55 3.532l.028 1.456c.036 1.851-.073 3.261-.327 4.23-.3 1.117-.857 1.928-1.672 2.432-.842.526-2.084.805-3.725.838zm7.719-12.213a2.065 2.065 0 0 0-.99-.788c-.43-.173-1.084-.252-1.964-.234-.88.017-2.021.095-3.423.234l.225 11.629 2.975-.057c1.166-.023 2.025-.228 2.577-.616.545-.381.903-1.024 1.074-1.928.146-.736.204-1.929.172-3.578l-.029-1.466c-.03-1.558-.236-2.623-.617-3.196zM156.223 279.057l-1.894-14.21 8.05-1.072.183 1.371-6.471.862.653 4.903 5.225-.696.182 1.371-5.224.696.693 5.204 6.721-.896.181 1.361zM172.545 276.046l-8.204-12.757 1.68-.412 6.114 9.742.925 1.747.062-1.99.826-11.446 1.659-.407-1.271 15.084zM183.587 272.93l-4.738-13.529 7.665-2.684.457 1.305-6.161 2.158 1.635 4.668 4.974-1.742.457 1.305-4.974 1.742 1.735 4.955 6.399-2.241.453 1.296zM195.87 268.17l-5.961-13.037 1.449-.662 5.39 11.789 5.165-2.362.571 1.249zM210.955 260.469l-.499.29c-1.927 1.12-3.546 1.253-4.858.4-.773-.496-1.534-1.31-2.281-2.444a38.088 38.088 0 0 1-1.088-1.767 29.48 29.48 0 0 1-1.011-1.885 11.207 11.207 0 0 1-.699-1.703 5.87 5.87 0 0 1-.25-1.515c-.002-.476.09-.929.275-1.36.398-.886 1.237-1.701 2.518-2.445l.498-.29c2.005-1.166 3.603-1.371 4.793-.617.744.473 1.486 1.298 2.227 2.475.368.578.742 1.193 1.121 1.845.383.658.716 1.273.999 1.844.293.573.525 1.125.696 1.656.171.531.266 1.041.284 1.531.028.493-.05.97-.233 1.433-.369.95-1.2 1.8-2.492 2.552zm-1.178-.879.48-.279c.598-.348 1.056-.699 1.375-1.054.309-.358.486-.763.529-1.217.072-.85-.386-2.123-1.372-3.82l-.511-.879a37.5 37.5 0 0 0-1.328-2.137c-.42-.612-.851-1.081-1.29-1.407-.917-.687-2.024-.653-3.323.101l-.68.395c-1.317.765-1.912 1.681-1.784 2.747.083.671.327 1.382.73 2.133.401.745.77 1.407 1.107 1.987l.511.878c.923 1.588 1.815 2.573 2.675 2.954.828.367 1.788.233 2.881-.402zM222.026 247.24a28.56 28.56 0 0 1-1.063.818c-.515.384-1.279.844-2.291 1.381l2.831 3.797-1.277.952-8.536-11.451a58.973 58.973 0 0 1 4.202-3.446c1.21-.902 2.263-1.26 3.159-1.074.751.154 1.521.761 2.311 1.82l.663.89c.614.823 1.046 1.59 1.297 2.301.52 1.504.087 2.841-1.296 4.012zm-5.276-6.902c-1.372 1.023-2.393 1.827-3.063 2.413l4.196 5.629a22.326 22.326 0 0 0 2.476-1.571c.683-.509 1.136-.925 1.357-1.247.226-.316.337-.652.334-1.007-.012-.601-.45-1.481-1.314-2.64l-.695-.933c-.534-.717-1.056-1.125-1.567-1.224-.5-.098-1.075.095-1.724.58zM232.845 237.785c-.18.186-.503.496-.968.929-.471.438-1.18.977-2.128 1.62l3.224 3.469-1.167 1.085-9.722-10.463a59.076 59.076 0 0 1 3.805-3.879c1.105-1.027 2.114-1.497 3.025-1.409.764.072 1.595.592 2.493 1.559l.756.814c.699.752 1.212 1.468 1.538 2.147.679 1.439.394 2.815-.856 4.128zm-5.99-6.292c-1.254 1.165-2.182 2.075-2.784 2.731l4.779 5.143a22.447 22.447 0 0 0 2.292-1.829c.624-.58 1.029-1.042 1.215-1.387.19-.339.265-.685.223-1.037-.077-.596-.608-1.424-1.592-2.483l-.792-.852c-.609-.655-1.172-1.004-1.689-1.048-.508-.043-1.058.211-1.652.762zM242.307 234.413l-10.799-9.428 5.341-6.117 1.042.909-4.293 4.918 3.726 3.253 3.466-3.971 1.042.91-3.466 3.971 3.954 3.452 4.459-5.107 1.034.902zM245.146 220.501l-6.32-4.456.911-1.293 6.261 4.414c1.239.874 2.117 1.416 2.635 1.627.528.21.956.323 1.285.342.325.024.636-.03.935-.162.555-.241 1.094-.733 1.617-1.475.523-.742.855-1.346.995-1.812.14-.465.117-.918-.07-1.356-.192-.443-.552-.902-1.08-1.378-.53-.485-1.249-1.047-2.157-1.687l-6.26-4.414.905-1.284 6.218 4.383c1.313.926 2.184 1.612 2.612 2.06.428.447.756.879.984 1.296.228.417.355.866.384 1.347.057 1.023-.372 2.182-1.286 3.479-1.361 1.93-2.789 2.786-4.286 2.569-.838-.121-1.777-.522-2.817-1.205-.48-.313-.969-.645-1.466-.995zM258.142 211.104l-.855-1.169c1.334-.889 2.325-1.928 2.972-3.119.751-1.381.75-2.431-.004-3.151a4.714 4.714 0 0 0-.943-.656l-.322-.176c-.387-.21-.712-.351-.975-.422a1.195 1.195 0 0 0-.765.025c-.402.155-.975.718-1.718 1.69-.665.871-1.16 1.453-1.486 1.744a5.124 5.124 0 0 1-.918.658 2.709 2.709 0 0 1-.915.278c-.681.067-1.457-.136-2.328-.61l-.083-.045c-1.81-.985-2.485-2.325-2.023-4.023.15-.539.388-1.109.716-1.71l.06-.11c.764-1.405 1.593-2.446 2.485-3.122l1.03 1.109c-1.054.826-1.829 1.697-2.326 2.611l-.04.074c-.547 1.006-.733 1.8-.556 2.382.146.493.608.951 1.388 1.375l.036.02c.896.487 1.616.561 2.159.219.368-.237.854-.752 1.46-1.544a43.82 43.82 0 0 1 1.396-1.733c.328-.37.685-.645 1.07-.826.794-.363 1.835-.195 3.124.506l.11.06c1.97 1.071 2.71 2.504 2.22 4.297a6.41 6.41 0 0 1-.567 1.481c-.237.436-.466.82-.686 1.153a10.98 10.98 0 0 1-.748 1.001c-.645.762-1.301 1.34-1.968 1.733zM265.597 198.558l-13.17-5.66 3.206-7.461 1.271.546-2.578 5.998 4.545 1.953 2.08-4.843 1.271.546-2.081 4.843 4.824 2.072 2.676-6.229 1.262.542zM269.072 187.299l-1.062-.984c1.14-1.127 1.915-2.336 2.323-3.629.474-1.499.272-2.53-.605-3.092a4.688 4.688 0 0 0-1.052-.464l-.349-.111c-.42-.133-.765-.209-1.038-.229a1.197 1.197 0 0 0-.746.171c-.365.229-.82.891-1.364 1.986-.486.982-.861 1.647-1.126 1.996-.271.347-.529.62-.776.821a2.71 2.71 0 0 1-.845.447c-.655.196-1.456.144-2.401-.155l-.09-.028c-1.965-.621-2.883-1.809-2.754-3.563.044-.557.17-1.163.376-1.815l.038-.12c.482-1.525 1.097-2.705 1.844-3.538l1.224.892c-.877 1.012-1.472 2.015-1.786 3.007l-.025.08c-.345 1.092-.376 1.907-.092 2.444.237.456.778.818 1.625 1.085l.04.012c.973.307 1.693.242 2.161-.196.316-.303.695-.901 1.138-1.794a43.81 43.81 0 0 1 1.04-1.968 3.34 3.34 0 0 1 .892-1.015c.71-.508 1.765-.541 3.164-.099l.12.038c2.138.676 3.138 1.941 2.998 3.795a6.385 6.385 0 0 1-.274 1.562 15.38 15.38 0 0 1-.454 1.263 11.11 11.11 0 0 1-.542 1.125c-.488.871-1.022 1.564-1.602 2.076zM2.414 141.642a5.55 5.55 0 1 1 11.101 0 5.55 5.55 0 0 1-11.101 0zM266.485 141.642a5.55 5.55 0 0 1 5.551-5.55 5.55 5.55 0 1 1-5.551 5.55z" />
    </g>
</svg>